<?xml version="1.0" encoding="UTF-8"?>
<svg id="ART" xmlns="http://www.w3.org/2000/svg" viewBox="0 0 360 252">
  <defs>
    <style>
      .cls-1 {
        fill: #003649;
      }

      .cls-2 {
        fill: #c0272d;
      }

      .cls-3 {
        fill: #fff;
      }
    </style>
  </defs>
  <g id="COLOR">
    <rect class="cls-1" x="0" width="360" height="252"/>
    <g>
      <rect class="cls-3" x="51.23" y="51.08" width="145.14" height="31.48" rx="2.63" ry="2.63"/>
      <rect class="cls-3" x="51.23" y="87.87" width="125.27" height="31.48" rx="2.63" ry="2.63"/>
      <rect class="cls-3" x="232.63" y="124.66" width="76.14" height="31.48" rx="2.63" ry="2.63"/>
      <path class="cls-2" d="M276.58,51.08h-71.88c-1.46,0-2.65,1.19-2.65,2.65v26.18c0,1.46,1.19,2.65,2.65,2.65h69.23c1.46,0,2.65,1.19,2.65,2.65h0c0,1.47-1.19,2.66-2.65,2.66h-89.09c-1.46,0-2.65,1.19-2.65,2.65v26.18c0,1.46,1.19,2.65,2.65,2.65h121.28c1.46,0,2.65-1.19,2.65-2.65v-62.97c0-1.46-1.19-2.65-2.65-2.65h-29.54Z"/>
      <path class="cls-2" d="M309.81,175.99H50.19c-.53,0-.96-.43-.96-.96s.43-.96.96-.96h259.62c.53,0,.96.43.96.96s-.43.96-.96.96Z"/>
      <g>
        <path class="cls-3" d="M67.22,181.96c2.5,0,4.44.41,5.85,1.24,1.4.83,2.1,2.24,2.1,4.23,0,.76-.14,1.43-.42,2.02-.28.59-.65,1.1-1.11,1.54s-.97.78-1.54,1.05c-.56.27-1.14.47-1.72.61l4.12,6.02c.22.31.47.54.74.69.27.15.55.27.86.36v.76h-6.44v-.76c.36,0,.55-.13.55-.38,0-.28-.21-.71-.63-1.3l-3.32-4.96h-5.85v6.01c0,.22.09.39.27.48.18.1.36.15.53.15v.76h-5.59v-.76c.5,0,.76-.21.76-.63v-15.73c0-.42-.25-.63-.76-.63v-.76h11.61ZM67.13,189.95c2.75,0,4.12-.87,4.12-2.61,0-.7-.33-1.25-.99-1.66-.66-.41-1.7-.61-3.13-.61h-6.65v4.88h6.65Z"/>
        <path class="cls-3" d="M98.55,185.87c0-.53-.43-.8-1.3-.8h-10.26v4.21h6.48c.48,0,.83-.04,1.05-.1.22-.07.34-.26.34-.57h.76v4.46h-.84c.08-.31-.03-.5-.34-.57-.31-.07-.74-.1-1.3-.1h-6.14v4.96h10.77c.34,0,.62-.08.84-.23.22-.15.34-.36.34-.61h.76v4.42h-.76c0-.25-.11-.39-.34-.42-.22-.03-.5-.04-.84-.04h-15.44v-.76c.14,0,.28-.05.42-.15.14-.1.21-.26.21-.48v-15.73c0-.22-.07-.38-.21-.48-.14-.1-.28-.15-.42-.15v-.76h14.93c.87,0,1.3-.25,1.3-.76h.76v4.67h-.76Z"/>
        <path class="cls-3" d="M107.76,194.03c0,.11,0,.23-.02.36-.01.13-.02.26-.02.4,0,.42.27.81.8,1.16.53.35,1.17.65,1.91.88.74.24,1.49.43,2.23.57.74.14,1.32.21,1.75.21.39,0,.88-.03,1.45-.08.57-.06,1.14-.17,1.7-.36.56-.18,1.04-.43,1.43-.76.39-.32.59-.75.59-1.28,0-.62-.34-1.07-1.03-1.35-.69-.28-1.55-.5-2.59-.65-1.04-.15-2.16-.31-3.36-.46-1.21-.15-2.33-.41-3.36-.76-1.04-.35-1.9-.85-2.59-1.51-.69-.66-1.03-1.59-1.03-2.8,0-1.79.74-3.22,2.23-4.29,1.49-1.06,3.58-1.6,6.27-1.6,1.32,0,2.45.11,3.39.32.94.21,1.73.44,2.38.69.64.25,1.17.48,1.58.69.41.21.71.32.9.32.22,0,.39-.04.5-.1.11-.07.25-.15.42-.23l.46.46-2.1,3.95-.76-.25c-.03-.17-.06-.34-.08-.51-.03-.17-.15-.34-.38-.5-.56-.48-1.43-.88-2.61-1.22s-2.5-.51-3.95-.51c-.56,0-1.09.04-1.6.11-.5.07-.95.19-1.35.36-.39.17-.7.39-.93.65-.22.27-.34.6-.34.99,0,.62.34,1.06,1.03,1.32.69.27,1.55.48,2.59.63,1.04.15,2.16.31,3.37.46,1.2.16,2.33.41,3.36.78,1.04.37,1.9.9,2.59,1.6.69.7,1.03,1.67,1.03,2.9s-.3,2.24-.9,3.03-1.35,1.4-2.25,1.85-1.89.74-2.96.88c-1.08.14-2.1.21-3.05.21s-1.9-.09-2.84-.27c-.94-.18-1.79-.39-2.57-.63-.77-.24-1.42-.46-1.96-.67-.53-.21-.86-.32-.97-.32-.2,0-.37.08-.51.25l-.59-.42,1.94-4.71.8.21Z"/>
        <path class="cls-3" d="M131.1,199.71c.45,0,.76-.05.93-.15.17-.1.25-.26.25-.48v-15.73c0-.22-.08-.38-.25-.48-.17-.1-.48-.15-.93-.15v-.76h6.39v.76c-.78,0-1.18.21-1.18.63v15.73c0,.42.39.63,1.18.63v.76h-6.39v-.76Z"/>
        <path class="cls-3" d="M144.98,199.71c.64,0,.97-.21.97-.63v-15.73c0-.42-.32-.63-.97-.63v-.76h11.69c1.65,0,3.07.27,4.25.8,1.18.53,2.14,1.23,2.88,2.08.74.86,1.29,1.84,1.64,2.94.35,1.11.53,2.25.53,3.43s-.17,2.32-.5,3.43c-.34,1.11-.87,2.09-1.6,2.94-.73.86-1.67,1.55-2.82,2.08-1.15.53-2.55.8-4.21.8h-11.86v-.76ZM155.46,197.35c.87,0,1.7-.06,2.48-.19s1.47-.41,2.06-.84c.59-.43,1.06-1.07,1.41-1.89s.53-1.94.53-3.34-.18-2.5-.53-3.3c-.35-.8-.82-1.4-1.41-1.81-.59-.41-1.28-.66-2.06-.76-.78-.1-1.61-.15-2.48-.15h-5.47v12.28h5.47Z"/>
        <path class="cls-3" d="M188.39,185.87c0-.53-.43-.8-1.3-.8h-10.26v4.21h6.48c.48,0,.83-.04,1.05-.1.22-.07.34-.26.34-.57h.76v4.46h-.84c.08-.31-.03-.5-.34-.57-.31-.07-.74-.1-1.3-.1h-6.14v4.96h10.77c.34,0,.62-.08.84-.23s.34-.36.34-.61h.76v4.42h-.76c0-.25-.11-.39-.34-.42-.22-.03-.5-.04-.84-.04h-15.44v-.76c.14,0,.28-.05.42-.15.14-.1.21-.26.21-.48v-15.73c0-.22-.07-.38-.21-.48-.14-.1-.28-.15-.42-.15v-.76h14.93c.87,0,1.3-.25,1.3-.76h.76v4.67h-.76Z"/>
        <path class="cls-3" d="M196.34,199.71c.5,0,.76-.21.76-.63v-15.73c0-.42-.25-.63-.76-.63v-.76h6.18v.76c-.2.03-.29.1-.29.21,0,.14.31.52.93,1.14l10.09,10.68v-11.4c0-.42-.28-.63-.84-.63v-.76h5.13v.76c-.5,0-.76.21-.76.63v15.73c0,.42.25.63.76.63v.76h-5.47v-.76c.2,0,.29-.07.29-.21,0-.11-.13-.31-.4-.59-.27-.28-.57-.6-.9-.97l-10.43-11.1v12.24c0,.42.29.63.88.63v.76h-5.17v-.76Z"/>
        <path class="cls-3" d="M229.69,199.71c.14,0,.28-.05.42-.15.14-.1.21-.26.21-.48v-14.01h-5.47c-.22,0-.43.06-.63.17s-.29.29-.29.55h-.76v-4.84h.76c0,.39.1.66.29.8.2.14.41.21.63.21h14.97c.22,0,.43-.07.63-.21.2-.14.29-.41.29-.8h.76v4.84h-.76c0-.25-.1-.43-.29-.55-.2-.11-.41-.17-.63-.17h-5.47v14.01c0,.42.25.63.76.63v.76h-5.43v-.76Z"/>
        <path class="cls-3" d="M247.49,199.71c.45,0,.76-.05.93-.15.17-.1.25-.26.25-.48v-15.73c0-.22-.08-.38-.25-.48-.17-.1-.48-.15-.93-.15v-.76h6.39v.76c-.78,0-1.18.21-1.18.63v15.73c0,.42.39.63,1.18.63v.76h-6.39v-.76Z"/>
        <path class="cls-3" d="M259.18,199.71c.34-.06.61-.22.82-.48.21-.27.37-.51.48-.74l6.27-13.67c.17-.39.3-.71.4-.95.1-.24.15-.47.15-.69,0-.17-.04-.27-.11-.32-.07-.04-.15-.09-.23-.15v-.76h6.35v.76c-.08.06-.18.1-.27.13-.1.03-.15.14-.15.34,0,.17.06.37.19.61.13.24.26.51.4.82l6.81,14.3c.14.25.29.43.46.55.17.11.35.2.55.25v.76h-5.97v-.63c.14,0,.29-.04.44-.13.15-.08.23-.24.23-.46,0-.17-.03-.32-.08-.46-.06-.14-.13-.32-.21-.55l-1.14-2.4h-9l-1.18,2.27c-.11.22-.2.43-.27.61-.07.18-.11.34-.11.48,0,.22.07.37.21.42.14.06.34.08.59.08v.76h-5.64v-.76ZM273.23,192.72l-3.41-7.07-2.99,7.07h6.39Z"/>
        <path class="cls-3" d="M292.07,181.96v.76c-.65,0-.97.21-.97.63v14.01h11.36c.34,0,.62-.08.84-.23.22-.15.34-.37.34-.65h.76v4.42h-.76c0-.22-.11-.35-.34-.38-.22-.03-.5-.04-.84-.04h-16.49v-.76c.73,0,1.09-.21,1.09-.63v-15.73c0-.42-.37-.63-1.09-.63v-.76h6.1Z"/>
      </g>
      <g>
        <path class="cls-3" d="M93.16,137.73c0-.13-.02-.26-.05-.4-.03-.13-.05-.3-.05-.49,0-.33-.33-.77-.99-1.34-.66-.56-1.6-1.11-2.82-1.63-1.22-.53-2.66-.97-4.31-1.34-1.65-.36-3.47-.55-5.45-.55-2.38,0-4.54.31-6.49.94-1.95.63-3.65,1.57-5.1,2.82-1.45,1.25-2.57,2.81-3.37,4.65-.79,1.85-1.19,3.96-1.19,6.34s.45,4.5,1.34,6.39c.89,1.88,2.06,3.5,3.52,4.85,1.45,1.35,3.1,2.38,4.95,3.07,1.85.69,3.73,1.04,5.64,1.04,1.78,0,3.6-.23,5.45-.69,1.85-.46,3.53-1,5.05-1.63,1.52-.63,2.75-1.3,3.71-2.03.96-.73,1.44-1.39,1.44-1.98v-.79c0-.4-.03-.73-.1-.99l1.09-.99,7.33,10.5-.99.49c-.79-.33-1.35-.49-1.68-.49-.53,0-1.39.3-2.57.89-1.19.59-2.69,1.27-4.51,2.03-1.82.76-3.93,1.4-6.34,1.93-2.41.53-5.1.79-8.07.79s-6.04-.43-9.01-1.29c-2.97-.86-5.61-2.23-7.92-4.11-2.31-1.88-4.19-4.22-5.64-7.03-1.45-2.8-2.18-6.06-2.18-9.75s.73-6.93,2.18-9.7c1.45-2.77,3.37-5.1,5.74-6.98s5.1-3.28,8.17-4.21c3.07-.92,6.22-1.39,9.45-1.39,2.51,0,4.8.23,6.88.69,2.08.46,3.91.99,5.5,1.58,1.58.59,2.9,1.12,3.96,1.58,1.06.46,1.81.69,2.28.69.33,0,.61-.1.84-.3.23-.2.48-.36.74-.5l1.19.69-6.53,9.41-1.09-.79Z"/>
        <path class="cls-3" d="M142.76,125.25c5.88,0,10.46.97,13.76,2.92,3.3,1.95,4.95,5.26,4.95,9.95,0,1.78-.33,3.37-.99,4.75-.66,1.39-1.54,2.59-2.62,3.61-1.09,1.02-2.29,1.85-3.61,2.48-1.32.63-2.67,1.11-4.06,1.44l9.7,14.16c.53.73,1.1,1.27,1.73,1.63.63.36,1.3.64,2.03.84v1.78h-15.15v-1.78c.86,0,1.29-.3,1.29-.89,0-.66-.5-1.68-1.49-3.07l-7.82-11.68h-13.76v14.16c0,.53.21.91.64,1.14.43.23.84.35,1.24.35v1.78h-13.17v-1.78c1.19,0,1.78-.5,1.78-1.49v-37.03c0-.99-.59-1.49-1.78-1.49v-1.78h27.33ZM142.56,144.06c6.47,0,9.7-2.05,9.7-6.14,0-1.65-.78-2.95-2.33-3.91-1.55-.96-4.01-1.44-7.38-1.44h-15.65v11.49h15.65Z"/>
        <path class="cls-3" d="M176.82,167.04c1.52,0,2.28-.5,2.28-1.49v-37.03c0-.99-.76-1.49-2.28-1.49v-1.78h27.53c3.89,0,7.23.63,10,1.88,2.77,1.25,5.03,2.89,6.78,4.9,1.75,2.01,3.04,4.32,3.86,6.93.82,2.61,1.24,5.3,1.24,8.07s-.39,5.46-1.19,8.07c-.79,2.61-2.05,4.92-3.76,6.93-1.72,2.01-3.93,3.65-6.63,4.9-2.71,1.25-6.01,1.88-9.9,1.88h-27.92v-1.78ZM201.48,161.49c2.05,0,3.99-.15,5.84-.45,1.85-.3,3.47-.96,4.85-1.98,1.39-1.02,2.49-2.51,3.32-4.46.82-1.95,1.24-4.57,1.24-7.87s-.41-5.89-1.24-7.77c-.83-1.88-1.93-3.3-3.32-4.26-1.39-.96-3-1.55-4.85-1.78-1.85-.23-3.8-.35-5.84-.35h-12.87v28.91h12.87Z"/>
      </g>
    </g>
  </g>
</svg>